<svg id="visual" viewBox="0 0 960 540" width="960" height="540" xmlns="http://www.w3.org/2000/svg" xmlns:xlink="http://www.w3.org/1999/xlink" version="1.1"><path d="M0 97L42 97L42 299L83 299L83 237L125 237L125 216L167 216L167 223L209 223L209 293L250 293L250 237L292 237L292 184L334 184L334 151L376 151L376 82L417 82L417 148L459 148L459 138L501 138L501 323L543 323L543 307L584 307L584 279L626 279L626 235L668 235L668 278L710 278L710 131L751 131L751 149L793 149L793 133L835 133L835 295L877 295L877 175L918 175L918 260L960 260L960 196L960 0L960 0L918 0L918 0L877 0L877 0L835 0L835 0L793 0L793 0L751 0L751 0L710 0L710 0L668 0L668 0L626 0L626 0L584 0L584 0L543 0L543 0L501 0L501 0L459 0L459 0L417 0L417 0L376 0L376 0L334 0L334 0L292 0L292 0L250 0L250 0L209 0L209 0L167 0L167 0L125 0L125 0L83 0L83 0L42 0L42 0L0 0Z" fill="#b697ff"></path><path d="M0 165L42 165L42 96L83 96L83 81L125 81L125 202L167 202L167 109L209 109L209 79L250 79L250 214L292 214L292 53L334 53L334 122L376 122L376 152L417 152L417 68L459 68L459 97L501 97L501 175L543 175L543 80L584 80L584 168L626 168L626 151L668 151L668 56L710 56L710 91L751 91L751 222L793 222L793 113L835 113L835 228L877 228L877 129L918 129L918 173L960 173L960 133L960 0L960 0L918 0L918 0L877 0L877 0L835 0L835 0L793 0L793 0L751 0L751 0L710 0L710 0L668 0L668 0L626 0L626 0L584 0L584 0L543 0L543 0L501 0L501 0L459 0L459 0L417 0L417 0L376 0L376 0L334 0L334 0L292 0L292 0L250 0L250 0L209 0L209 0L167 0L167 0L125 0L125 0L83 0L83 0L42 0L42 0L0 0Z" fill="#745dba"></path><path d="M0 144L42 144L42 90L83 90L83 155L125 155L125 78L167 78L167 143L209 143L209 141L250 141L250 74L292 74L292 82L334 82L334 69L376 69L376 72L417 72L417 113L459 113L459 135L501 135L501 100L543 100L543 61L584 61L584 126L626 126L626 35L668 35L668 18L710 18L710 120L751 120L751 135L793 135L793 80L835 80L835 99L877 99L877 69L918 69L918 151L960 151L960 7L960 0L960 0L918 0L918 0L877 0L877 0L835 0L835 0L793 0L793 0L751 0L751 0L710 0L710 0L668 0L668 0L626 0L626 0L584 0L584 0L543 0L543 0L501 0L501 0L459 0L459 0L417 0L417 0L376 0L376 0L334 0L334 0L292 0L292 0L250 0L250 0L209 0L209 0L167 0L167 0L125 0L125 0L83 0L83 0L42 0L42 0L0 0Z" fill="#352879"></path></svg>